<mxfile host="app.diagrams.net" modified="2022-11-23T18:51:02.963Z" agent="5.0 (Windows)" etag="y3nnauB2gmVJk2Mow0PL" version="20.6.0" type="github">
  <diagram id="C5RBs43oDa-KdzZeNtuy" name="Page-1">
    <mxGraphModel dx="2175" dy="1494" grid="1" gridSize="10" guides="1" tooltips="1" connect="1" arrows="1" fold="1" page="1" pageScale="1" pageWidth="1169" pageHeight="827" math="0" shadow="0">
      <root>
        <mxCell id="WIyWlLk6GJQsqaUBKTNV-0" />
        <mxCell id="WIyWlLk6GJQsqaUBKTNV-1" parent="WIyWlLk6GJQsqaUBKTNV-0" />
        <mxCell id="GUMPVwp6jt3l8_LeHuC3-7" value="&lt;p style=&quot;margin:0px;margin-top:4px;text-align:center;&quot;&gt;&lt;i&gt;&amp;lt;&amp;lt;IAlgorithmElement&amp;gt;&amp;gt;&lt;/i&gt;&lt;br&gt;&lt;b&gt;Interface&lt;/b&gt;&lt;/p&gt;&lt;hr size=&quot;1&quot;&gt;&lt;p style=&quot;margin:0px;margin-left:4px;&quot;&gt;&lt;br&gt;&lt;/p&gt;&lt;hr size=&quot;1&quot;&gt;&lt;p style=&quot;margin:0px;margin-left:4px;&quot;&gt;+ getJavascriptCode(): string&lt;br&gt;&lt;/p&gt;" style="verticalAlign=top;align=left;overflow=fill;fontSize=12;fontFamily=Helvetica;html=1;" vertex="1" parent="WIyWlLk6GJQsqaUBKTNV-1">
          <mxGeometry x="495" y="40" width="170" height="140" as="geometry" />
        </mxCell>
        <mxCell id="GUMPVwp6jt3l8_LeHuC3-8" value="&lt;p style=&quot;margin:0px;margin-top:4px;text-align:center;&quot;&gt;&lt;i&gt;&amp;lt;&amp;lt;IConnector&amp;gt;&amp;gt;&lt;/i&gt;&lt;br&gt;&lt;b&gt;Interface&lt;/b&gt;&lt;/p&gt;&lt;hr size=&quot;1&quot;&gt;&lt;p style=&quot;margin:0px;margin-left:4px;&quot;&gt;&lt;br&gt;&lt;/p&gt;&lt;hr size=&quot;1&quot;&gt;&lt;p style=&quot;margin:0px;margin-left:4px;&quot;&gt;&lt;br&gt;&lt;/p&gt;" style="verticalAlign=top;align=left;overflow=fill;fontSize=12;fontFamily=Helvetica;html=1;" vertex="1" parent="WIyWlLk6GJQsqaUBKTNV-1">
          <mxGeometry x="760" y="440" width="160" height="140" as="geometry" />
        </mxCell>
        <mxCell id="GUMPVwp6jt3l8_LeHuC3-9" value="&lt;p style=&quot;margin:0px;margin-top:4px;text-align:center;&quot;&gt;&lt;i&gt;&amp;lt;&amp;lt;&amp;lt;ITrigger&amp;gt;&amp;gt;&lt;/i&gt;&lt;br&gt;&lt;b&gt;Interface&lt;/b&gt;&lt;/p&gt;&lt;hr size=&quot;1&quot;&gt;&lt;p style=&quot;margin:0px;margin-left:4px;&quot;&gt;&lt;br&gt;&lt;/p&gt;&lt;hr size=&quot;1&quot;&gt;&lt;p style=&quot;margin:0px;margin-left:4px;&quot;&gt;&lt;br&gt;&lt;/p&gt;" style="verticalAlign=top;align=left;overflow=fill;fontSize=12;fontFamily=Helvetica;html=1;" vertex="1" parent="WIyWlLk6GJQsqaUBKTNV-1">
          <mxGeometry x="1040" y="440" width="160" height="140" as="geometry" />
        </mxCell>
        <mxCell id="GUMPVwp6jt3l8_LeHuC3-10" value="&lt;p style=&quot;margin:0px;margin-top:4px;text-align:center;&quot;&gt;&lt;i&gt;&amp;lt;&amp;lt;IControlStructure&amp;gt;&amp;gt;&lt;/i&gt;&lt;br&gt;&lt;b&gt;Interface&lt;/b&gt;&lt;/p&gt;&lt;hr size=&quot;1&quot;&gt;&lt;p style=&quot;margin:0px;margin-left:4px;&quot;&gt;&lt;br&gt;&lt;/p&gt;&lt;hr size=&quot;1&quot;&gt;&lt;p style=&quot;margin:0px;margin-left:4px;&quot;&gt;&lt;br&gt;&lt;/p&gt;" style="verticalAlign=top;align=left;overflow=fill;fontSize=12;fontFamily=Helvetica;html=1;" vertex="1" parent="WIyWlLk6GJQsqaUBKTNV-1">
          <mxGeometry x="50" y="460" width="160" height="100" as="geometry" />
        </mxCell>
        <mxCell id="GUMPVwp6jt3l8_LeHuC3-11" value="&lt;p style=&quot;margin:0px;margin-top:4px;text-align:center;&quot;&gt;&lt;i&gt;&amp;lt;&amp;lt;ILoopStructure&amp;gt;&amp;gt;&lt;/i&gt;&lt;br&gt;&lt;b&gt;Interface&lt;/b&gt;&lt;/p&gt;&lt;hr size=&quot;1&quot;&gt;&lt;p style=&quot;margin:0px;margin-left:4px;&quot;&gt;&lt;br&gt;&lt;/p&gt;&lt;hr size=&quot;1&quot;&gt;&lt;p style=&quot;margin:0px;margin-left:4px;&quot;&gt;&lt;br&gt;&lt;/p&gt;" style="verticalAlign=top;align=left;overflow=fill;fontSize=12;fontFamily=Helvetica;html=1;" vertex="1" parent="WIyWlLk6GJQsqaUBKTNV-1">
          <mxGeometry x="490" y="460" width="160" height="100" as="geometry" />
        </mxCell>
        <mxCell id="GUMPVwp6jt3l8_LeHuC3-14" value="&lt;p style=&quot;margin:0px;margin-top:4px;text-align:center;&quot;&gt;&lt;b&gt;If&lt;/b&gt;&lt;/p&gt;&lt;hr size=&quot;1&quot;&gt;&lt;p style=&quot;margin:0px;margin-left:4px;&quot;&gt;&lt;br&gt;&lt;/p&gt;&lt;hr size=&quot;1&quot;&gt;&lt;p style=&quot;margin:0px;margin-left:4px;&quot;&gt;&lt;br&gt;&lt;/p&gt;" style="verticalAlign=top;align=left;overflow=fill;fontSize=12;fontFamily=Helvetica;html=1;" vertex="1" parent="WIyWlLk6GJQsqaUBKTNV-1">
          <mxGeometry x="90" y="640" width="160" height="90" as="geometry" />
        </mxCell>
        <mxCell id="GUMPVwp6jt3l8_LeHuC3-16" value="&lt;p style=&quot;margin:0px;margin-top:4px;text-align:center;&quot;&gt;&lt;b&gt;While&lt;/b&gt;&lt;br&gt;&lt;/p&gt;&lt;hr size=&quot;1&quot;&gt;&lt;p style=&quot;margin:0px;margin-left:4px;&quot;&gt;&lt;br&gt;&lt;/p&gt;&lt;hr size=&quot;1&quot;&gt;&lt;p style=&quot;margin:0px;margin-left:4px;&quot;&gt;&lt;br&gt;&lt;/p&gt;" style="verticalAlign=top;align=left;overflow=fill;fontSize=12;fontFamily=Helvetica;html=1;" vertex="1" parent="WIyWlLk6GJQsqaUBKTNV-1">
          <mxGeometry x="490" y="630" width="160" height="90" as="geometry" />
        </mxCell>
        <mxCell id="GUMPVwp6jt3l8_LeHuC3-18" value="&lt;p style=&quot;margin:0px;margin-top:4px;text-align:center;&quot;&gt;&lt;i&gt;&amp;lt;&amp;lt;ICondition&amp;gt;&amp;gt;&lt;/i&gt;&lt;/p&gt;&lt;p style=&quot;margin:0px;margin-top:4px;text-align:center;&quot;&gt;&lt;b&gt;Interface&lt;br&gt;&lt;/b&gt;&lt;/p&gt;&lt;hr size=&quot;1&quot;&gt;&lt;p style=&quot;margin:0px;margin-left:4px;&quot;&gt;&lt;br&gt;&lt;/p&gt;&lt;hr size=&quot;1&quot;&gt;&lt;p style=&quot;margin:0px;margin-left:4px;&quot;&gt;&lt;br&gt;&lt;/p&gt;" style="verticalAlign=top;align=left;overflow=fill;fontSize=12;fontFamily=Helvetica;html=1;" vertex="1" parent="WIyWlLk6GJQsqaUBKTNV-1">
          <mxGeometry x="390" y="910" width="160" height="100" as="geometry" />
        </mxCell>
        <mxCell id="GUMPVwp6jt3l8_LeHuC3-29" value="&lt;p style=&quot;margin:0px;margin-top:4px;text-align:center;&quot;&gt;&lt;b&gt;UnaryCondition&lt;/b&gt;&lt;/p&gt;&lt;hr size=&quot;1&quot;&gt;&lt;p style=&quot;margin:0px;margin-left:4px;&quot;&gt;- operator: !&lt;br&gt;&lt;/p&gt;&lt;hr size=&quot;1&quot;&gt;&lt;p style=&quot;margin:0px;margin-left:4px;&quot;&gt;&lt;br&gt;&lt;/p&gt;" style="verticalAlign=top;align=left;overflow=fill;fontSize=12;fontFamily=Helvetica;html=1;" vertex="1" parent="WIyWlLk6GJQsqaUBKTNV-1">
          <mxGeometry x="440" y="1200" width="160" height="70" as="geometry" />
        </mxCell>
        <mxCell id="GUMPVwp6jt3l8_LeHuC3-30" value="&lt;p style=&quot;margin:0px;margin-top:4px;text-align:center;&quot;&gt;&lt;i&gt;&amp;lt;&amp;lt;IVariable&amp;gt;&amp;gt;&lt;/i&gt;&lt;/p&gt;&lt;p style=&quot;margin:0px;margin-top:4px;text-align:center;&quot;&gt;&lt;b&gt;Interface&lt;br&gt;&lt;/b&gt;&lt;/p&gt;&lt;hr size=&quot;1&quot;&gt;&lt;p style=&quot;margin:0px;margin-left:4px;&quot;&gt;&lt;br&gt;&lt;/p&gt;&lt;hr size=&quot;1&quot;&gt;" style="verticalAlign=top;align=left;overflow=fill;fontSize=12;fontFamily=Helvetica;html=1;" vertex="1" parent="WIyWlLk6GJQsqaUBKTNV-1">
          <mxGeometry x="681" y="910" width="160" height="100" as="geometry" />
        </mxCell>
        <mxCell id="GUMPVwp6jt3l8_LeHuC3-31" value="&lt;p style=&quot;margin:0px;margin-top:4px;text-align:center;&quot;&gt;&lt;b&gt;BinaryCondition&lt;/b&gt;&lt;/p&gt;&lt;hr size=&quot;1&quot;&gt;- operator: == | != | &amp;lt; | &amp;lt;= | &amp;gt; | &amp;gt;=&lt;br&gt;&lt;hr size=&quot;1&quot;&gt;&lt;p style=&quot;margin:0px;margin-left:4px;&quot;&gt;&lt;br&gt;&lt;/p&gt;" style="verticalAlign=top;align=left;overflow=fill;fontSize=12;fontFamily=Helvetica;html=1;" vertex="1" parent="WIyWlLk6GJQsqaUBKTNV-1">
          <mxGeometry x="440" y="1310" width="190" height="70" as="geometry" />
        </mxCell>
        <mxCell id="GUMPVwp6jt3l8_LeHuC3-32" value="&lt;p style=&quot;margin:0px;margin-top:4px;text-align:center;&quot;&gt;&lt;b&gt;MultipleCondition&lt;/b&gt;&lt;/p&gt;&lt;hr size=&quot;1&quot;&gt;- operator: AND | OR&lt;br&gt;&lt;hr size=&quot;1&quot;&gt;&lt;p style=&quot;margin:0px;margin-left:4px;&quot;&gt;&lt;br&gt;&lt;/p&gt;" style="verticalAlign=top;align=left;overflow=fill;fontSize=12;fontFamily=Helvetica;html=1;" vertex="1" parent="WIyWlLk6GJQsqaUBKTNV-1">
          <mxGeometry x="230" y="1196" width="140" height="74" as="geometry" />
        </mxCell>
        <mxCell id="GUMPVwp6jt3l8_LeHuC3-33" value="" style="endArrow=diamondThin;endFill=1;endSize=24;html=1;rounded=0;exitX=0;exitY=0.5;exitDx=0;exitDy=0;entryX=-0.002;entryY=0.418;entryDx=0;entryDy=0;entryPerimeter=0;edgeStyle=elbowEdgeStyle;" edge="1" parent="WIyWlLk6GJQsqaUBKTNV-1" source="GUMPVwp6jt3l8_LeHuC3-18" target="GUMPVwp6jt3l8_LeHuC3-32">
          <mxGeometry width="160" relative="1" as="geometry">
            <mxPoint x="410" y="1140" as="sourcePoint" />
            <mxPoint x="570" y="1140" as="targetPoint" />
            <Array as="points">
              <mxPoint x="200" y="1090" />
            </Array>
          </mxGeometry>
        </mxCell>
        <mxCell id="GUMPVwp6jt3l8_LeHuC3-34" value="leftCondition" style="edgeLabel;html=1;align=center;verticalAlign=middle;resizable=0;points=[];" vertex="1" connectable="0" parent="GUMPVwp6jt3l8_LeHuC3-33">
          <mxGeometry x="0.5752" y="2" relative="1" as="geometry">
            <mxPoint as="offset" />
          </mxGeometry>
        </mxCell>
        <mxCell id="GUMPVwp6jt3l8_LeHuC3-35" value="" style="endArrow=diamondThin;endFill=1;endSize=24;html=1;rounded=0;exitX=0;exitY=0.5;exitDx=0;exitDy=0;entryX=-0.012;entryY=0.64;entryDx=0;entryDy=0;entryPerimeter=0;edgeStyle=elbowEdgeStyle;" edge="1" parent="WIyWlLk6GJQsqaUBKTNV-1" source="GUMPVwp6jt3l8_LeHuC3-18" target="GUMPVwp6jt3l8_LeHuC3-32">
          <mxGeometry width="160" relative="1" as="geometry">
            <mxPoint x="400" y="970" as="sourcePoint" />
            <mxPoint x="301.3299999999999" y="1222.22" as="targetPoint" />
            <Array as="points">
              <mxPoint x="160" y="1120" />
            </Array>
          </mxGeometry>
        </mxCell>
        <mxCell id="GUMPVwp6jt3l8_LeHuC3-36" value="rightCondition" style="edgeLabel;html=1;align=center;verticalAlign=middle;resizable=0;points=[];" vertex="1" connectable="0" parent="GUMPVwp6jt3l8_LeHuC3-35">
          <mxGeometry x="0.5752" y="2" relative="1" as="geometry">
            <mxPoint as="offset" />
          </mxGeometry>
        </mxCell>
        <mxCell id="GUMPVwp6jt3l8_LeHuC3-37" value="" style="endArrow=block;dashed=1;endFill=0;endSize=12;html=1;rounded=0;exitX=0.5;exitY=0;exitDx=0;exitDy=0;entryX=0.082;entryY=0.982;entryDx=0;entryDy=0;entryPerimeter=0;" edge="1" parent="WIyWlLk6GJQsqaUBKTNV-1" source="GUMPVwp6jt3l8_LeHuC3-32" target="GUMPVwp6jt3l8_LeHuC3-18">
          <mxGeometry width="160" relative="1" as="geometry">
            <mxPoint x="370" y="1170" as="sourcePoint" />
            <mxPoint x="530" y="1170" as="targetPoint" />
          </mxGeometry>
        </mxCell>
        <mxCell id="GUMPVwp6jt3l8_LeHuC3-38" value="" style="endArrow=block;dashed=1;endFill=0;endSize=12;html=1;rounded=0;exitX=0.182;exitY=-0.059;exitDx=0;exitDy=0;entryX=0.5;entryY=1;entryDx=0;entryDy=0;exitPerimeter=0;" edge="1" parent="WIyWlLk6GJQsqaUBKTNV-1" source="GUMPVwp6jt3l8_LeHuC3-29" target="GUMPVwp6jt3l8_LeHuC3-18">
          <mxGeometry width="160" relative="1" as="geometry">
            <mxPoint x="310" y="1206" as="sourcePoint" />
            <mxPoint x="440" y="1020" as="targetPoint" />
          </mxGeometry>
        </mxCell>
        <mxCell id="GUMPVwp6jt3l8_LeHuC3-39" value="" style="endArrow=block;dashed=1;endFill=0;endSize=12;html=1;rounded=0;exitX=0;exitY=0.5;exitDx=0;exitDy=0;edgeStyle=elbowEdgeStyle;" edge="1" parent="WIyWlLk6GJQsqaUBKTNV-1" source="GUMPVwp6jt3l8_LeHuC3-31">
          <mxGeometry width="160" relative="1" as="geometry">
            <mxPoint x="479.1199999999999" y="1204.926" as="sourcePoint" />
            <mxPoint x="430" y="1010" as="targetPoint" />
            <Array as="points">
              <mxPoint x="430" y="1180" />
            </Array>
          </mxGeometry>
        </mxCell>
        <mxCell id="GUMPVwp6jt3l8_LeHuC3-40" value="" style="endArrow=diamondThin;endFill=1;endSize=24;html=1;rounded=0;exitX=0;exitY=0.75;exitDx=0;exitDy=0;entryX=0.992;entryY=0.414;entryDx=0;entryDy=0;entryPerimeter=0;edgeStyle=elbowEdgeStyle;" edge="1" parent="WIyWlLk6GJQsqaUBKTNV-1" source="GUMPVwp6jt3l8_LeHuC3-30" target="GUMPVwp6jt3l8_LeHuC3-29">
          <mxGeometry width="160" relative="1" as="geometry">
            <mxPoint x="400" y="970" as="sourcePoint" />
            <mxPoint x="239.72000000000003" y="1236.932" as="targetPoint" />
            <Array as="points">
              <mxPoint x="640" y="1110" />
            </Array>
          </mxGeometry>
        </mxCell>
        <mxCell id="GUMPVwp6jt3l8_LeHuC3-41" value="rightValue" style="edgeLabel;html=1;align=center;verticalAlign=middle;resizable=0;points=[];" vertex="1" connectable="0" parent="GUMPVwp6jt3l8_LeHuC3-40">
          <mxGeometry x="0.5752" y="2" relative="1" as="geometry">
            <mxPoint as="offset" />
          </mxGeometry>
        </mxCell>
        <mxCell id="GUMPVwp6jt3l8_LeHuC3-42" value="" style="endArrow=diamondThin;endFill=1;endSize=24;html=1;rounded=0;exitX=0.25;exitY=1;exitDx=0;exitDy=0;entryX=0.999;entryY=0.375;entryDx=0;entryDy=0;entryPerimeter=0;edgeStyle=orthogonalEdgeStyle;" edge="1" parent="WIyWlLk6GJQsqaUBKTNV-1" source="GUMPVwp6jt3l8_LeHuC3-30" target="GUMPVwp6jt3l8_LeHuC3-31">
          <mxGeometry width="160" relative="1" as="geometry">
            <mxPoint x="691" y="995" as="sourcePoint" />
            <mxPoint x="608.7199999999998" y="1238.98" as="targetPoint" />
          </mxGeometry>
        </mxCell>
        <mxCell id="GUMPVwp6jt3l8_LeHuC3-48" value="leftValue" style="edgeLabel;html=1;align=center;verticalAlign=middle;resizable=0;points=[];" vertex="1" connectable="0" parent="GUMPVwp6jt3l8_LeHuC3-42">
          <mxGeometry x="0.6897" relative="1" as="geometry">
            <mxPoint as="offset" />
          </mxGeometry>
        </mxCell>
        <mxCell id="GUMPVwp6jt3l8_LeHuC3-44" value="" style="endArrow=diamondThin;endFill=1;endSize=24;html=1;rounded=0;exitX=0.75;exitY=1;exitDx=0;exitDy=0;entryX=0.999;entryY=0.672;entryDx=0;entryDy=0;edgeStyle=orthogonalEdgeStyle;entryPerimeter=0;" edge="1" parent="WIyWlLk6GJQsqaUBKTNV-1" source="GUMPVwp6jt3l8_LeHuC3-30" target="GUMPVwp6jt3l8_LeHuC3-31">
          <mxGeometry width="160" relative="1" as="geometry">
            <mxPoint x="731" y="1020" as="sourcePoint" />
            <mxPoint x="639.81" y="1353.75" as="targetPoint" />
          </mxGeometry>
        </mxCell>
        <mxCell id="GUMPVwp6jt3l8_LeHuC3-49" value="rightValue" style="edgeLabel;html=1;align=center;verticalAlign=middle;resizable=0;points=[];" vertex="1" connectable="0" parent="GUMPVwp6jt3l8_LeHuC3-44">
          <mxGeometry x="0.7102" relative="1" as="geometry">
            <mxPoint as="offset" />
          </mxGeometry>
        </mxCell>
        <mxCell id="GUMPVwp6jt3l8_LeHuC3-50" style="edgeStyle=orthogonalEdgeStyle;rounded=0;orthogonalLoop=1;jettySize=auto;html=1;exitX=0.5;exitY=1;exitDx=0;exitDy=0;" edge="1" parent="WIyWlLk6GJQsqaUBKTNV-1" source="GUMPVwp6jt3l8_LeHuC3-31" target="GUMPVwp6jt3l8_LeHuC3-31">
          <mxGeometry relative="1" as="geometry" />
        </mxCell>
        <mxCell id="GUMPVwp6jt3l8_LeHuC3-55" value="Extends" style="endArrow=block;endSize=16;endFill=0;html=1;rounded=0;entryX=1;entryY=1;entryDx=0;entryDy=0;exitX=0.5;exitY=0;exitDx=0;exitDy=0;" edge="1" parent="WIyWlLk6GJQsqaUBKTNV-1" source="GUMPVwp6jt3l8_LeHuC3-8" target="GUMPVwp6jt3l8_LeHuC3-7">
          <mxGeometry width="160" relative="1" as="geometry">
            <mxPoint x="430" y="230" as="sourcePoint" />
            <mxPoint x="590" y="230" as="targetPoint" />
          </mxGeometry>
        </mxCell>
        <mxCell id="GUMPVwp6jt3l8_LeHuC3-56" value="Extends" style="endArrow=block;endSize=16;endFill=0;html=1;rounded=0;entryX=0.25;entryY=1;entryDx=0;entryDy=0;exitX=0.5;exitY=0;exitDx=0;exitDy=0;edgeStyle=orthogonalEdgeStyle;" edge="1" parent="WIyWlLk6GJQsqaUBKTNV-1" source="GUMPVwp6jt3l8_LeHuC3-18" target="GUMPVwp6jt3l8_LeHuC3-7">
          <mxGeometry width="160" relative="1" as="geometry">
            <mxPoint x="410" y="540" as="sourcePoint" />
            <mxPoint x="590" y="190" as="targetPoint" />
            <Array as="points">
              <mxPoint x="410" y="910" />
              <mxPoint x="410" y="370" />
              <mxPoint x="538" y="370" />
            </Array>
          </mxGeometry>
        </mxCell>
        <mxCell id="GUMPVwp6jt3l8_LeHuC3-57" value="&lt;p style=&quot;margin:0px;margin-top:4px;text-align:center;&quot;&gt;&lt;i&gt;&amp;lt;&amp;lt;IListener&amp;gt;&amp;gt;&lt;/i&gt;&lt;br&gt;&lt;b&gt;Interface&lt;/b&gt;&lt;/p&gt;&lt;hr size=&quot;1&quot;&gt;&lt;p style=&quot;margin:0px;margin-left:4px;&quot;&gt;&lt;br&gt;&lt;/p&gt;&lt;hr size=&quot;1&quot;&gt;&lt;p style=&quot;margin:0px;margin-left:4px;&quot;&gt;&lt;br&gt;&lt;/p&gt;" style="verticalAlign=top;align=left;overflow=fill;fontSize=12;fontFamily=Helvetica;html=1;" vertex="1" parent="WIyWlLk6GJQsqaUBKTNV-1">
          <mxGeometry x="1200" y="630" width="160" height="140" as="geometry" />
        </mxCell>
        <mxCell id="GUMPVwp6jt3l8_LeHuC3-58" value="&lt;p style=&quot;margin:0px;margin-top:4px;text-align:center;&quot;&gt;&lt;i&gt;&amp;lt;&amp;lt;ITimer&amp;gt;&amp;gt;&lt;/i&gt;&lt;br&gt;&lt;b&gt;Interface&lt;/b&gt;&lt;/p&gt;&lt;hr size=&quot;1&quot;&gt;&lt;p style=&quot;margin:0px;margin-left:4px;&quot;&gt;&lt;br&gt;&lt;/p&gt;&lt;hr size=&quot;1&quot;&gt;&lt;p style=&quot;margin:0px;margin-left:4px;&quot;&gt;&lt;br&gt;&lt;/p&gt;" style="verticalAlign=top;align=left;overflow=fill;fontSize=12;fontFamily=Helvetica;html=1;" vertex="1" parent="WIyWlLk6GJQsqaUBKTNV-1">
          <mxGeometry x="980" y="630" width="160" height="140" as="geometry" />
        </mxCell>
        <mxCell id="GUMPVwp6jt3l8_LeHuC3-59" value="" style="endArrow=block;dashed=1;endFill=0;endSize=12;html=1;rounded=0;exitX=0.25;exitY=0;exitDx=0;exitDy=0;entryX=0.5;entryY=1;entryDx=0;entryDy=0;" edge="1" parent="WIyWlLk6GJQsqaUBKTNV-1" source="GUMPVwp6jt3l8_LeHuC3-14" target="GUMPVwp6jt3l8_LeHuC3-10">
          <mxGeometry width="160" relative="1" as="geometry">
            <mxPoint x="260" y="620" as="sourcePoint" />
            <mxPoint x="530" y="610" as="targetPoint" />
          </mxGeometry>
        </mxCell>
        <mxCell id="GUMPVwp6jt3l8_LeHuC3-61" value="Extends" style="endArrow=block;endSize=16;endFill=0;html=1;rounded=0;entryX=0;entryY=1;entryDx=0;entryDy=0;exitX=0.5;exitY=0;exitDx=0;exitDy=0;" edge="1" parent="WIyWlLk6GJQsqaUBKTNV-1" source="GUMPVwp6jt3l8_LeHuC3-10" target="GUMPVwp6jt3l8_LeHuC3-7">
          <mxGeometry width="160" relative="1" as="geometry">
            <mxPoint x="430" y="380" as="sourcePoint" />
            <mxPoint x="170" y="120" as="targetPoint" />
          </mxGeometry>
        </mxCell>
        <mxCell id="GUMPVwp6jt3l8_LeHuC3-64" value="Extends" style="endArrow=block;endSize=16;endFill=0;html=1;rounded=0;entryX=0.659;entryY=1.007;entryDx=0;entryDy=0;entryPerimeter=0;exitX=0.75;exitY=0;exitDx=0;exitDy=0;" edge="1" parent="WIyWlLk6GJQsqaUBKTNV-1" source="GUMPVwp6jt3l8_LeHuC3-11" target="GUMPVwp6jt3l8_LeHuC3-7">
          <mxGeometry width="160" relative="1" as="geometry">
            <mxPoint x="140" y="470" as="sourcePoint" />
            <mxPoint x="505" y="190" as="targetPoint" />
          </mxGeometry>
        </mxCell>
        <mxCell id="GUMPVwp6jt3l8_LeHuC3-65" value="" style="endArrow=block;dashed=1;endFill=0;endSize=12;html=1;rounded=0;exitX=0.5;exitY=0;exitDx=0;exitDy=0;" edge="1" parent="WIyWlLk6GJQsqaUBKTNV-1" source="GUMPVwp6jt3l8_LeHuC3-16">
          <mxGeometry width="160" relative="1" as="geometry">
            <mxPoint x="610" y="690" as="sourcePoint" />
            <mxPoint x="570" y="560" as="targetPoint" />
          </mxGeometry>
        </mxCell>
        <mxCell id="GUMPVwp6jt3l8_LeHuC3-66" value="" style="endArrow=diamondThin;endFill=1;endSize=24;html=1;rounded=0;entryX=0.5;entryY=1;entryDx=0;entryDy=0;exitX=0.75;exitY=0;exitDx=0;exitDy=0;" edge="1" parent="WIyWlLk6GJQsqaUBKTNV-1" source="GUMPVwp6jt3l8_LeHuC3-18" target="GUMPVwp6jt3l8_LeHuC3-16">
          <mxGeometry width="160" relative="1" as="geometry">
            <mxPoint x="400" y="940" as="sourcePoint" />
            <mxPoint x="257.76" y="807.3499999999999" as="targetPoint" />
          </mxGeometry>
        </mxCell>
        <mxCell id="GUMPVwp6jt3l8_LeHuC3-67" value="condition" style="edgeLabel;html=1;align=center;verticalAlign=middle;resizable=0;points=[];" vertex="1" connectable="0" parent="GUMPVwp6jt3l8_LeHuC3-66">
          <mxGeometry x="0.3901" y="1" relative="1" as="geometry">
            <mxPoint x="1" as="offset" />
          </mxGeometry>
        </mxCell>
        <mxCell id="GUMPVwp6jt3l8_LeHuC3-68" value="" style="endArrow=diamondThin;endFill=1;endSize=24;html=1;rounded=0;entryX=0.994;entryY=0.433;entryDx=0;entryDy=0;entryPerimeter=0;" edge="1" parent="WIyWlLk6GJQsqaUBKTNV-1" target="GUMPVwp6jt3l8_LeHuC3-14">
          <mxGeometry width="160" relative="1" as="geometry">
            <mxPoint x="390" y="910" as="sourcePoint" />
            <mxPoint x="257.76" y="807.3499999999999" as="targetPoint" />
          </mxGeometry>
        </mxCell>
        <mxCell id="GUMPVwp6jt3l8_LeHuC3-69" value="condition" style="edgeLabel;html=1;align=center;verticalAlign=middle;resizable=0;points=[];" vertex="1" connectable="0" parent="GUMPVwp6jt3l8_LeHuC3-68">
          <mxGeometry x="0.3901" y="1" relative="1" as="geometry">
            <mxPoint x="1" as="offset" />
          </mxGeometry>
        </mxCell>
        <mxCell id="GUMPVwp6jt3l8_LeHuC3-70" value="" style="endArrow=diamondThin;endFill=1;endSize=24;html=1;rounded=0;exitX=0;exitY=0.5;exitDx=0;exitDy=0;edgeStyle=elbowEdgeStyle;" edge="1" parent="WIyWlLk6GJQsqaUBKTNV-1" source="GUMPVwp6jt3l8_LeHuC3-7" target="GUMPVwp6jt3l8_LeHuC3-14">
          <mxGeometry width="160" relative="1" as="geometry">
            <mxPoint x="245" y="330" as="sourcePoint" />
            <mxPoint x="83.31999999999994" y="613.3599999999999" as="targetPoint" />
            <Array as="points">
              <mxPoint x="15" y="490" />
            </Array>
          </mxGeometry>
        </mxCell>
        <mxCell id="GUMPVwp6jt3l8_LeHuC3-71" value="then" style="edgeLabel;html=1;align=center;verticalAlign=middle;resizable=0;points=[];" vertex="1" connectable="0" parent="GUMPVwp6jt3l8_LeHuC3-70">
          <mxGeometry x="0.5752" y="2" relative="1" as="geometry">
            <mxPoint y="130" as="offset" />
          </mxGeometry>
        </mxCell>
        <mxCell id="GUMPVwp6jt3l8_LeHuC3-74" value="" style="endArrow=diamondThin;endFill=0;endSize=24;html=1;rounded=0;edgeStyle=elbowEdgeStyle;exitX=0;exitY=0.386;exitDx=0;exitDy=0;entryX=0;entryY=0.75;entryDx=0;entryDy=0;exitPerimeter=0;" edge="1" parent="WIyWlLk6GJQsqaUBKTNV-1" source="GUMPVwp6jt3l8_LeHuC3-7" target="GUMPVwp6jt3l8_LeHuC3-14">
          <mxGeometry width="160" relative="1" as="geometry">
            <mxPoint x="320" y="470" as="sourcePoint" />
            <mxPoint x="70" y="580" as="targetPoint" />
            <Array as="points">
              <mxPoint x="-20" y="420" />
            </Array>
          </mxGeometry>
        </mxCell>
        <mxCell id="GUMPVwp6jt3l8_LeHuC3-75" value="else" style="edgeLabel;html=1;align=center;verticalAlign=middle;resizable=0;points=[];" vertex="1" connectable="0" parent="GUMPVwp6jt3l8_LeHuC3-74">
          <mxGeometry x="0.8895" y="4" relative="1" as="geometry">
            <mxPoint x="-5" y="-3" as="offset" />
          </mxGeometry>
        </mxCell>
        <mxCell id="GUMPVwp6jt3l8_LeHuC3-76" value="&lt;p style=&quot;margin:0px;margin-top:4px;text-align:center;&quot;&gt;&lt;b&gt;InlineVariable&lt;/b&gt;&lt;/p&gt;&lt;hr size=&quot;1&quot;&gt;&lt;p style=&quot;margin:0px;margin-left:4px;&quot;&gt;&lt;br&gt;&lt;/p&gt;&lt;hr size=&quot;1&quot;&gt;&lt;p style=&quot;margin:0px;margin-left:4px;&quot;&gt;&lt;br&gt;&lt;/p&gt;" style="verticalAlign=top;align=left;overflow=fill;fontSize=12;fontFamily=Helvetica;html=1;" vertex="1" parent="WIyWlLk6GJQsqaUBKTNV-1">
          <mxGeometry x="890" y="1120" width="160" height="70" as="geometry" />
        </mxCell>
        <mxCell id="GUMPVwp6jt3l8_LeHuC3-77" value="" style="endArrow=block;dashed=1;endFill=0;endSize=12;html=1;rounded=0;entryX=0.956;entryY=1;entryDx=0;entryDy=0;entryPerimeter=0;exitX=0.463;exitY=-0.057;exitDx=0;exitDy=0;exitPerimeter=0;" edge="1" parent="WIyWlLk6GJQsqaUBKTNV-1" source="GUMPVwp6jt3l8_LeHuC3-76" target="GUMPVwp6jt3l8_LeHuC3-30">
          <mxGeometry width="160" relative="1" as="geometry">
            <mxPoint x="550" y="1260" as="sourcePoint" />
            <mxPoint x="710" y="1260" as="targetPoint" />
          </mxGeometry>
        </mxCell>
        <mxCell id="GUMPVwp6jt3l8_LeHuC3-78" value="&lt;p style=&quot;margin:0px;margin-top:4px;text-align:center;&quot;&gt;&lt;b&gt;Sequence&lt;/b&gt;&lt;/p&gt;&lt;hr size=&quot;1&quot;&gt;&lt;br&gt;&lt;hr size=&quot;1&quot;&gt;&lt;p style=&quot;margin:0px;margin-left:4px;&quot;&gt;&lt;br&gt;&lt;/p&gt;" style="verticalAlign=top;align=left;overflow=fill;fontSize=12;fontFamily=Helvetica;html=1;" vertex="1" parent="WIyWlLk6GJQsqaUBKTNV-1">
          <mxGeometry x="230" y="-150" width="160" height="90" as="geometry" />
        </mxCell>
        <mxCell id="GUMPVwp6jt3l8_LeHuC3-79" value="" style="endArrow=diamondThin;endFill=0;endSize=24;html=1;rounded=0;entryX=1;entryY=0.5;entryDx=0;entryDy=0;exitX=0.5;exitY=0;exitDx=0;exitDy=0;" edge="1" parent="WIyWlLk6GJQsqaUBKTNV-1" source="GUMPVwp6jt3l8_LeHuC3-7" target="GUMPVwp6jt3l8_LeHuC3-78">
          <mxGeometry width="160" relative="1" as="geometry">
            <mxPoint x="370" as="sourcePoint" />
            <mxPoint x="530" as="targetPoint" />
          </mxGeometry>
        </mxCell>
        <mxCell id="GUMPVwp6jt3l8_LeHuC3-81" value="elements" style="edgeLabel;html=1;align=center;verticalAlign=middle;resizable=0;points=[];" vertex="1" connectable="0" parent="GUMPVwp6jt3l8_LeHuC3-79">
          <mxGeometry x="0.3176" y="-7" relative="1" as="geometry">
            <mxPoint as="offset" />
          </mxGeometry>
        </mxCell>
        <mxCell id="GUMPVwp6jt3l8_LeHuC3-82" value="0..*" style="edgeLabel;html=1;align=center;verticalAlign=middle;resizable=0;points=[];" vertex="1" connectable="0" parent="GUMPVwp6jt3l8_LeHuC3-79">
          <mxGeometry x="0.0901" y="-8" relative="1" as="geometry">
            <mxPoint x="103" y="65" as="offset" />
          </mxGeometry>
        </mxCell>
        <mxCell id="GUMPVwp6jt3l8_LeHuC3-80" value="&lt;p style=&quot;margin:0px;margin-top:4px;text-align:center;&quot;&gt;&lt;b&gt;InlineVariable&lt;/b&gt;&lt;/p&gt;&lt;hr size=&quot;1&quot;&gt;&lt;p style=&quot;margin:0px;margin-left:4px;&quot;&gt;&lt;br&gt;&lt;/p&gt;&lt;hr size=&quot;1&quot;&gt;&lt;p style=&quot;margin:0px;margin-left:4px;&quot;&gt;&lt;br&gt;&lt;/p&gt;" style="verticalAlign=top;align=left;overflow=fill;fontSize=12;fontFamily=Helvetica;html=1;" vertex="1" parent="WIyWlLk6GJQsqaUBKTNV-1">
          <mxGeometry x="1080" y="1120" width="160" height="70" as="geometry" />
        </mxCell>
      </root>
    </mxGraphModel>
  </diagram>
</mxfile>
